<svg xmlns="http://www.w3.org/2000/svg" xmlns:xlink="http://www.w3.org/1999/xlink" width="500" zoomAndPan="magnify" viewBox="0 0 375 374.999991" height="500" preserveAspectRatio="xMidYMid meet" version="1.0"><defs><clipPath id="3909e09d0b"><path d="M 87.1875 76.363281 L 300 76.363281 L 300 308 L 87.1875 308 Z M 87.1875 76.363281 " clip-rule="nonzero"/></clipPath><clipPath id="5c05bab1b2"><path d="M 96.1875 76.363281 L 290.941406 76.363281 C 295.914062 76.363281 299.941406 80.394531 299.941406 85.363281 L 299.941406 298.773438 C 299.941406 303.746094 295.914062 307.773438 290.941406 307.773438 L 96.1875 307.773438 C 91.21875 307.773438 87.1875 303.746094 87.1875 298.773438 L 87.1875 85.363281 C 87.1875 80.394531 91.21875 76.363281 96.1875 76.363281 Z M 96.1875 76.363281 " clip-rule="nonzero"/></clipPath></defs><rect x="-37.5" width="450" fill="#ffffff" y="-37.499999" height="449.999989" fill-opacity="1"/><rect x="-37.5" width="450" fill="#ffffff" y="-37.499999" height="449.999989" fill-opacity="1"/><g clip-path="url(#3909e09d0b)"><g clip-path="url(#5c05bab1b2)"><path stroke-linecap="butt" transform="matrix(0.75, 0, 0, 0.75, 87.188452, 76.365223)" fill="none" stroke-linejoin="miter" d="M 11.998731 -0.00258898 L 271.670607 -0.00258898 C 278.300815 -0.00258898 283.670607 5.372411 283.670607 11.997411 L 283.670607 296.544287 C 283.670607 303.174495 278.300815 308.544287 271.670607 308.544287 L 11.998731 308.544287 C 5.373731 308.544287 -0.00126877 303.174495 -0.00126877 296.544287 L -0.00126877 11.997411 C -0.00126877 5.372411 5.373731 -0.00258898 11.998731 -0.00258898 Z M 11.998731 -0.00258898 " stroke="#000000" stroke-width="50" stroke-opacity="1" stroke-miterlimit="4"/></g></g><path stroke-linecap="butt" transform="matrix(0.75, 0, 0, 0.75, 37.500002, 173.207449)" fill="none" stroke-linejoin="miter" d="M 48.75 6.499444 L 367.489605 6.499444 " stroke="#ff5757" stroke-width="13" stroke-opacity="1" stroke-miterlimit="4"/><path stroke-linecap="round" transform="matrix(0.75, 0, 0, 0.75, 37.500002, 173.207449)" fill-opacity="1" fill="#ff5757" fill-rule="nonzero" stroke-linejoin="round" d="M 6.499998 6.499444 C 6.499998 -4.27139 15.229165 -13.000557 25.999999 -13.000557 C 36.770833 -13.000557 45.5 -4.27139 45.5 6.499444 C 45.5 17.270278 36.770833 25.999445 25.999999 25.999445 C 15.229165 25.999445 6.499998 17.270278 6.499998 6.499444 " stroke="#ff5757" stroke-width="13" stroke-opacity="1" stroke-miterlimit="4"/><path stroke-linecap="round" transform="matrix(0.75, 0, 0, 0.75, 37.500002, 173.207449)" fill-opacity="1" fill="#ff5757" fill-rule="nonzero" stroke-linejoin="round" d="M 409.739608 6.499444 C 409.739608 17.270278 401.01044 25.999445 390.239606 25.999445 C 379.468772 25.999445 370.739605 17.270278 370.739605 6.499444 C 370.739605 -4.27139 379.468772 -13.000557 390.239606 -13.000557 C 401.01044 -13.000557 409.739608 -4.27139 409.739608 6.499444 " stroke="#ff5757" stroke-width="13" stroke-opacity="1" stroke-miterlimit="4"/><path stroke-linecap="butt" transform="matrix(0.75, 0.000000000000001321, -0.000000000000001321, 0.75, 44.882572, 328.124978)" fill="none" stroke-linejoin="miter" d="M 0.00032073 12.50003 L 64.526367 12.50003 " stroke="#ff5757" stroke-width="25" stroke-opacity="1" stroke-miterlimit="4"/><path stroke-linecap="butt" transform="matrix(0, 0.75, -0.75, 0, 63.629283, 290.971358)" fill="none" stroke-linejoin="miter" d="M 0.00173034 12.500503 L 64.522568 12.500503 " stroke="#ff5757" stroke-width="25" stroke-opacity="1" stroke-miterlimit="4"/><path stroke-linecap="butt" transform="matrix(0.000000001309, -0.75, 0.75, 0.000000001309, 328.121702, 339.358075)" fill="none" stroke-linejoin="miter" d="M -0.00173396 12.49919 L 64.524312 12.49919 " stroke="#ff5757" stroke-width="25" stroke-opacity="1" stroke-miterlimit="4"/><path stroke-linecap="butt" transform="matrix(0.75, 0.000000000000001321, -0.000000000000001321, 0.75, 298.481704, 320.611385)" fill="none" stroke-linejoin="miter" d="M -0.00164713 12.502529 L 64.524399 12.502529 " stroke="#ff5757" stroke-width="25" stroke-opacity="1" stroke-miterlimit="4"/><path stroke-linecap="butt" transform="matrix(0, 0.75, -0.75, 0, 63.629283, 39.952307)" fill="none" stroke-linejoin="miter" d="M 0.00109059 12.500503 L 64.521928 12.500503 " stroke="#ff5757" stroke-width="25" stroke-opacity="1" stroke-miterlimit="4"/><path stroke-linecap="butt" transform="matrix(-0.75, -0.000000001309, 0.000000001309, -0.75, 93.269288, 54.58761)" fill="none" stroke-linejoin="miter" d="M -0.000324344 12.502231 L 64.525722 12.502231 " stroke="#ff5757" stroke-width="25" stroke-opacity="1" stroke-miterlimit="4"/><path stroke-linecap="butt" transform="matrix(-0.75, -0.000000001309, 0.000000001309, -0.75, 343.980832, 54.58761)" fill="none" stroke-linejoin="miter" d="M 0.000483704 12.502231 L 64.52653 12.502231 " stroke="#ff5757" stroke-width="25" stroke-opacity="1" stroke-miterlimit="4"/><path stroke-linecap="butt" transform="matrix(0.000000001309, -0.75, 0.75, 0.000000001309, 325.234142, 88.339021)" fill="none" stroke-linejoin="miter" d="M -0.00109645 12.500311 L 64.524949 12.500311 " stroke="#ff5757" stroke-width="25" stroke-opacity="1" stroke-miterlimit="4"/><path stroke-linecap="butt" transform="matrix(0.75, 0, 0, 0.75, 127.649703, 111.326037)" fill="none" stroke-linejoin="miter" d="M -0.00168776 12.497576 L 179.196241 12.497576 " stroke="#a6a6a6" stroke-width="25" stroke-opacity="1" stroke-miterlimit="4"/><path stroke-linecap="butt" transform="matrix(0.75, 0, 0, 0.75, 127.649703, 144.749654)" fill="none" stroke-linejoin="miter" d="M -0.00168776 12.500461 L 179.196241 12.500461 " stroke="#a6a6a6" stroke-width="25" stroke-opacity="1" stroke-miterlimit="4"/><path stroke-linecap="butt" transform="matrix(0.75, 0, 0, 0.75, 127.649703, 192.626368)" fill="none" stroke-linejoin="miter" d="M -0.00168776 12.498177 L 179.196241 12.498177 " stroke="#a6a6a6" stroke-width="25" stroke-opacity="1" stroke-miterlimit="4"/><path stroke-linecap="butt" transform="matrix(0.75, 0, 0, 0.75, 127.649703, 226.274224)" fill="none" stroke-linejoin="miter" d="M -0.00168776 12.498952 L 179.196241 12.498952 " stroke="#a6a6a6" stroke-width="25" stroke-opacity="1" stroke-miterlimit="4"/><path stroke-linecap="butt" transform="matrix(0.75, 0.000000000000000643, -0.000000000000000643, 0.75, 127.649703, 257.265979)" fill="none" stroke-linejoin="miter" d="M -0.00168776 12.499529 L 132.612904 12.499529 " stroke="#a6a6a6" stroke-width="25" stroke-opacity="1" stroke-miterlimit="4"/></svg>