<svg xmlns="http://www.w3.org/2000/svg" xmlns:xlink="http://www.w3.org/1999/xlink" width="500" zoomAndPan="magnify" viewBox="0 0 375 374.999991" height="500" preserveAspectRatio="xMidYMid meet" version="1.0"><defs><clipPath id="9a4b23b444"><path d="M 87.1875 76.363281 L 300 76.363281 L 300 308 L 87.1875 308 Z M 87.1875 76.363281 " clip-rule="nonzero"/></clipPath><clipPath id="200ff73b8c"><path d="M 96.1875 76.363281 L 290.941406 76.363281 C 295.914062 76.363281 299.941406 80.394531 299.941406 85.363281 L 299.941406 298.773438 C 299.941406 303.746094 295.914062 307.773438 290.941406 307.773438 L 96.1875 307.773438 C 91.21875 307.773438 87.1875 303.746094 87.1875 298.773438 L 87.1875 85.363281 C 87.1875 80.394531 91.21875 76.363281 96.1875 76.363281 Z M 96.1875 76.363281 " clip-rule="nonzero"/></clipPath></defs><g clip-path="url(#9a4b23b444)"><g clip-path="url(#200ff73b8c)"><path stroke-linecap="butt" transform="matrix(0.75, 0, 0, 0.75, 87.188452, 76.365223)" fill="none" stroke-linejoin="miter" d="M 11.998731 -0.00258898 L 271.670607 -0.00258898 C 278.300815 -0.00258898 283.670607 5.372411 283.670607 11.997411 L 283.670607 296.544287 C 283.670607 303.174495 278.300815 308.544287 271.670607 308.544287 L 11.998731 308.544287 C 5.373731 308.544287 -0.00126877 303.174495 -0.00126877 296.544287 L -0.00126877 11.997411 C -0.00126877 5.372411 5.373731 -0.00258898 11.998731 -0.00258898 Z M 11.998731 -0.00258898 " stroke="#000000" stroke-width="28" stroke-opacity="1" stroke-miterlimit="4"/></g></g><path stroke-linecap="butt" transform="matrix(0.75, 0, 0, 0.75, 37.500002, 173.957449)" fill="none" stroke-linejoin="miter" d="M 41.25 5.499444 L 374.989605 5.499444 " stroke="#ff5757" stroke-width="11" stroke-opacity="1" stroke-miterlimit="4"/><path stroke-linecap="round" transform="matrix(0.75, 0, 0, 0.75, 37.500002, 173.957449)" fill-opacity="1" fill="#ff5757" fill-rule="nonzero" stroke-linejoin="round" d="M 5.499998 5.499444 C 5.499998 -3.61514 12.885415 -11.000557 21.999999 -11.000557 C 31.114583 -11.000557 38.5 -3.61514 38.5 5.499444 C 38.5 14.614028 31.114583 21.999445 21.999999 21.999445 C 12.885415 21.999445 5.499998 14.614028 5.499998 5.499444 " stroke="#ff5757" stroke-width="11" stroke-opacity="1" stroke-miterlimit="4"/><path stroke-linecap="round" transform="matrix(0.75, 0, 0, 0.75, 37.500002, 173.957449)" fill-opacity="1" fill="#ff5757" fill-rule="nonzero" stroke-linejoin="round" d="M 410.739608 5.499444 C 410.739608 14.614028 403.35419 21.999445 394.239607 21.999445 C 385.125023 21.999445 377.739605 14.614028 377.739605 5.499444 C 377.739605 -3.61514 385.125023 -11.000557 394.239607 -11.000557 C 403.35419 -11.000557 410.739608 -3.61514 410.739608 5.499444 " stroke="#ff5757" stroke-width="11" stroke-opacity="1" stroke-miterlimit="4"/><path stroke-linecap="butt" transform="matrix(0.75, 0.000000000000001321, -0.000000000000001321, 0.75, 47.132572, 330.374978)" fill="none" stroke-linejoin="miter" d="M 0.000320927 9.50003 L 64.526367 9.50003 " stroke="#ff5757" stroke-width="19" stroke-opacity="1" stroke-miterlimit="4"/><path stroke-linecap="butt" transform="matrix(0, 0.75, -0.75, 0, 61.379283, 290.971358)" fill="none" stroke-linejoin="miter" d="M 0.00173034 9.500503 L 64.522568 9.500503 " stroke="#ff5757" stroke-width="19" stroke-opacity="1" stroke-miterlimit="4"/><path stroke-linecap="butt" transform="matrix(0.000000001309, -0.75, 0.75, 0.000000001309, 330.371702, 339.358075)" fill="none" stroke-linejoin="miter" d="M -0.00173396 9.49919 L 64.524312 9.49919 " stroke="#ff5757" stroke-width="19" stroke-opacity="1" stroke-miterlimit="4"/><path stroke-linecap="butt" transform="matrix(0.75, 0.000000000000001321, -0.000000000000001321, 0.75, 295.205522, 325.111356)" fill="none" stroke-linejoin="miter" d="M 0.00201245 9.502567 L 64.52285 9.502567 " stroke="#ff5757" stroke-width="19" stroke-opacity="1" stroke-miterlimit="4"/><path stroke-linecap="butt" transform="matrix(0, 0.75, -0.75, 0, 61.379283, 45.215901)" fill="none" stroke-linejoin="miter" d="M -0.00140971 9.500503 L 64.524636 9.500503 " stroke="#ff5757" stroke-width="19" stroke-opacity="1" stroke-miterlimit="4"/><path stroke-linecap="butt" transform="matrix(-0.75, -0.000000001309, 0.000000001309, -0.75, 95.519288, 52.33761)" fill="none" stroke-linejoin="miter" d="M -0.000324547 9.502231 L 64.525721 9.502231 " stroke="#ff5757" stroke-width="19" stroke-opacity="1" stroke-miterlimit="4"/><path stroke-linecap="butt" transform="matrix(-0.75, -0.000000001309, 0.000000001309, -0.75, 341.730832, 52.33761)" fill="none" stroke-linejoin="miter" d="M 0.000483896 9.502231 L 64.52653 9.502231 " stroke="#ff5757" stroke-width="19" stroke-opacity="1" stroke-miterlimit="4"/><path stroke-linecap="butt" transform="matrix(0.000000001309, -0.75, 0.75, 0.000000001309, 327.484142, 88.339021)" fill="none" stroke-linejoin="miter" d="M -0.00109645 9.500311 L 64.524949 9.500311 " stroke="#ff5757" stroke-width="19" stroke-opacity="1" stroke-miterlimit="4"/><path stroke-linecap="butt" transform="matrix(0.75, 0, 0, 0.75, 127.649703, 123.145408)" fill="none" stroke-linejoin="miter" d="M -0.00168776 9.498832 L 179.196241 9.498832 " stroke="#a6a6a6" stroke-width="19" stroke-opacity="1" stroke-miterlimit="4"/><path stroke-linecap="butt" transform="matrix(0.75, 0, 0, 0.75, 127.649703, 146.999654)" fill="none" stroke-linejoin="miter" d="M -0.00168776 9.500461 L 179.196241 9.500461 " stroke="#a6a6a6" stroke-width="19" stroke-opacity="1" stroke-miterlimit="4"/><path stroke-linecap="butt" transform="matrix(0.75, 0, 0, 0.75, 127.649703, 194.876368)" fill="none" stroke-linejoin="miter" d="M -0.00168776 9.498177 L 179.196241 9.498177 " stroke="#a6a6a6" stroke-width="19" stroke-opacity="1" stroke-miterlimit="4"/><path stroke-linecap="butt" transform="matrix(0.75, 0, 0, 0.75, 127.649703, 221.347164)" fill="none" stroke-linejoin="miter" d="M -0.00168776 9.500657 L 179.196241 9.500657 " stroke="#a6a6a6" stroke-width="19" stroke-opacity="1" stroke-miterlimit="4"/><path stroke-linecap="butt" transform="matrix(0.75, 0.000000000000000643, -0.000000000000000643, 0.75, 127.649703, 246.358081)" fill="none" stroke-linejoin="miter" d="M -0.00168776 9.501726 L 132.612904 9.501726 " stroke="#a6a6a6" stroke-width="19" stroke-opacity="1" stroke-miterlimit="4"/></svg>