<?xml version="1.0" encoding="UTF-8"?>
<svg version="1.1" xmlns="http://www.w3.org/2000/svg" width="930" height="565">
<path fill="#D0BC86" d="M0 0 C0.86749878 -0.00974854 1.73499756 -0.01949707 2.62878418 -0.02954102 C22.28972038 -0.20496762 41.25310105 0.11592869 60.56640625 4.23828125 C61.4780957 4.43083496 62.38978516 4.62338867 63.32910156 4.82177734 C105.3589724 13.97899529 143.51115725 34.16539173 175.22265625 63.1171875 C177.36564937 65.05659628 179.54985263 66.93157424 181.75390625 68.80078125 C185.07546099 71.69632496 187.96079343 74.80642205 190.8046875 78.16796875 C192.57052853 80.24312561 194.4069945 82.23523882 196.25390625 84.23828125 C213.20280527 103.37941238 226.82474534 126.03241016 236.62890625 149.61328125 C236.92829102 150.33330322 237.22767578 151.0533252 237.53613281 151.79516602 C238.72722957 154.75899989 239.56640625 157.01412624 239.56640625 160.23828125 C240.43869873 160.21471558 240.43869873 160.21471558 241.32861328 160.19067383 C286.18262881 159.15072062 330.91245556 172.15280239 364.31640625 203.23828125 C365.21875 204.10453125 366.12109375 204.97078125 367.05078125 205.86328125 C369.52401726 208.26400156 369.52401726 208.26400156 372.19921875 210.33984375 C375.82094701 213.2443981 378.61250388 216.67130481 381.56640625 220.23828125 C382.39398437 221.22828125 383.2215625 222.21828125 384.07421875 223.23828125 C401.30738689 244.25532823 421.49471961 276.92472371 420.56640625 305.23828125 C421.21222656 305.25246094 421.85804688 305.26664062 422.5234375 305.28125 C438.46555631 306.08816983 453.33114458 311.30795649 467.56640625 318.23828125 C468.51515625 318.686875 469.46390625 319.13546875 470.44140625 319.59765625 C499.26071968 334.1788565 521.8443818 361.7071389 532.28515625 392.07421875 C543.10351435 425.80870964 540.77083006 462.13256971 524.96142578 493.86328125 C508.4347644 525.5822715 480.5075446 548.9068877 446.47802734 559.64501953 C445.5317749 559.93868408 445.5317749 559.93868408 444.56640625 560.23828125 C443.55191406 560.55667969 442.53742187 560.87507812 441.4921875 561.203125 C424.40619963 565.99292076 406.23554851 565.52970301 388.65802002 565.49897766 C386.18313251 565.50200373 383.70824595 565.50589549 381.23336101 565.51057023 C375.88415549 565.51867284 370.53500139 565.52066747 365.18579483 565.51706696 C357.23070413 565.51172677 349.27565007 565.51788833 341.32056335 565.52614989 C326.28161167 565.54134055 311.24267691 565.54310007 296.20371917 565.54062686 C284.5858509 565.53878987 272.96798813 565.54056232 261.35012054 565.5448513 C259.67739145 565.54545372 258.00466235 565.54605492 256.33193325 565.54665491 C253.81088812 565.54756222 251.289843 565.54847089 248.76879788 565.54938726 C225.34810931 565.55780933 201.92742281 565.56215763 178.50673294 565.55798054 C177.62495111 565.55782416 176.74316928 565.55766779 175.83466679 565.55750667 C171.36606607 565.55670096 166.89746535 565.55585519 162.42886463 565.55499337 C161.09779192 565.55473674 161.09779192 565.55473674 159.73982886 565.55447492 C157.94533031 565.55412826 156.15083177 565.55377973 154.35633322 565.55342933 C126.4393659 565.54807319 98.52243018 565.55600258 70.60546875 565.57446289 C39.19613451 565.59520854 7.78681983 565.60590075 -23.62252164 565.6018874 C-26.97569608 565.6014921 -30.32887053 565.60113054 -33.68204498 565.60079002 C-34.92037906 565.60065393 -34.92037906 565.60065393 -36.18372999 565.60051508 C-48.6108245 565.59935229 -61.03789916 565.60597304 -73.46498871 565.61660194 C-87.60856928 565.62868708 -101.7521063 565.63017485 -115.89568755 565.61781178 C-123.79609716 565.61121378 -131.69640244 565.612743 -139.59680356 565.62640029 C-145.51796394 565.6356916 -151.43904088 565.6290535 -157.36019745 565.61655249 C-159.73889239 565.61391859 -162.11759969 565.61623046 -164.49628243 565.62428836 C-183.90956912 565.685432 -203.1111191 564.30947529 -221.99609375 559.55078125 C-223.53740967 559.16950073 -223.53740967 559.16950073 -225.10986328 558.78051758 C-259.27905013 550.01387242 -291.42035963 533.34027143 -317.2890625 509.23046875 C-319.22576807 507.43134336 -321.21508111 505.74118929 -323.24609375 504.05078125 C-362.4357054 469.67116218 -387.11242844 415.73979853 -391.43359375 364.23828125 C-391.80976418 357.47231619 -391.82434339 350.70033416 -391.80859375 343.92578125 C-391.80771759 343.00241974 -391.80684143 342.07905823 -391.80593872 341.12771606 C-391.75825095 325.84370298 -390.87612944 311.18723919 -387.43359375 296.23828125 C-387.19753418 295.2107373 -386.96147461 294.18319336 -386.71826172 293.12451172 C-377.40286863 254.11517702 -358.13832388 219.10863722 -330.43359375 190.23828125 C-329.84835937 189.62049805 -329.263125 189.00271484 -328.66015625 188.36621094 C-309.67583137 168.40706854 -287.47167493 152.748522 -262.43359375 141.23828125 C-261.28761719 140.7071875 -260.14164063 140.17609375 -258.9609375 139.62890625 C-246.01244948 133.86080826 -232.73534581 129.60406217 -218.93359375 126.42578125 C-218.03833984 126.21880615 -217.14308594 126.01183105 -216.22070312 125.79858398 C-210.31280162 124.49649916 -204.46367546 123.70867296 -198.43359375 123.23828125 C-198.19640625 122.56796875 -197.95921875 121.89765625 -197.71484375 121.20703125 C-186.4442707 95.09228881 -162.52222095 70.48640485 -140.43359375 53.23828125 C-139.47324219 52.46097656 -138.51289063 51.68367188 -137.5234375 50.8828125 C-99.18773367 20.3984159 -49.27203191 0.46452746 0 0 Z "  transform="translate(391.43359375,-0.23828125)"/>
<path fill="#0C53C5" d="M0 0 C4.29 0 8.58 0 13 0 C13 5.94 13 11.88 13 18 C37.09 18 61.18 18 86 18 C86 12.06 86 6.12 86 0 C90.29 0 94.58 0 99 0 C99.10831658 3.37586685 99.18746727 6.74823231 99.25 10.125 C99.28351563 11.07632812 99.31703125 12.02765625 99.3515625 13.0078125 C99.43281531 18.85801462 99.13302299 22.49746833 95 27 C90.39503151 30.69580306 86.83695811 31.58269404 81.0703125 31.51757812 C80.29878845 31.5245874 79.5272644 31.53159668 78.73236084 31.53881836 C76.19620171 31.55634346 73.66116938 31.54479582 71.125 31.53125 C69.35432726 31.53394651 67.58365597 31.53783025 65.81298828 31.54284668 C62.10760354 31.54873428 58.40260532 31.54020275 54.69726562 31.52148438 C49.95587394 31.49869509 45.21538802 31.51182216 40.47402954 31.53577423 C36.81934833 31.55025229 33.16488064 31.54561705 29.51019287 31.53526306 C27.76234835 31.53260132 26.01448422 31.53584606 24.2666626 31.54518127 C21.8204845 31.55538029 19.37575792 31.53980062 16.9296875 31.51757812 C15.85409576 31.52972351 15.85409576 31.52972351 14.7567749 31.54211426 C9.72809125 31.45779847 6.8775597 30.1488241 3 27 C-0.81679364 21.73490521 -0.3521226 16.35533207 -0.1875 10.125 C-0.17396484 9.15046875 -0.16042969 8.1759375 -0.14648438 7.171875 C-0.11132459 4.78100991 -0.05752375 2.39043157 0 0 Z "  transform="translate(404,341)"/>
<path fill="#0C53C5" d="M0 0 C4.50454825 3.77124245 8.80193876 7.6606597 12.93359375 11.8359375 C13.4563942 12.36015289 13.97919464 12.88436829 14.51783752 13.42446899 C16.16012345 15.0722787 17.7988665 16.72355901 19.4375 18.375 C20.56161467 19.50413955 21.68596174 20.63304778 22.81054688 21.76171875 C25.54305235 24.50515188 28.27239009 27.25169985 31 30 C30.06725891 31.12894876 29.12859878 32.25300876 28.1875 33.375 C27.66542969 34.00148438 27.14335937 34.62796875 26.60546875 35.2734375 C25 37 25 37 22 39 C21.58637207 38.58113525 21.17274414 38.16227051 20.74658203 37.73071289 C18.87533169 35.83870591 17.00022415 33.95056815 15.125 32.0625 C14.14853516 31.0734668 14.14853516 31.0734668 13.15234375 30.06445312 C12.52714844 29.43603516 11.90195312 28.80761719 11.2578125 28.16015625 C10.6817627 27.57886963 10.10571289 26.99758301 9.51220703 26.39868164 C8.03347525 24.90048064 8.03347525 24.90048064 6 24 C6 40.5 6 57 6 74 C2.04 74 -1.92 74 -6 74 C-6.33 57.83 -6.66 41.66 -7 25 C-11.62 29.62 -16.24 34.24 -21 39 C-24.90432869 37.04783565 -27.03839944 35.12613393 -30 32 C-28.71977125 29.19030533 -27.39285871 27.1460762 -25.20263672 24.97558594 C-24.64220673 24.41530701 -24.08177673 23.85502808 -23.50436401 23.277771 C-22.90222076 22.68595032 -22.30007751 22.09412964 -21.6796875 21.484375 C-21.06102814 20.86854553 -20.44236877 20.25271606 -19.80496216 19.6182251 C-17.83296186 17.65739664 -15.85411263 15.70364699 -13.875 13.75 C-12.53469836 12.41973201 -11.19484917 11.089008 -9.85546875 9.7578125 C-6.57553411 6.4998985 -3.28944058 3.24831467 0 0 Z "  transform="translate(453,273)"/>
</svg>
